<?xml version="1.0" encoding="UTF-8" standalone="no"?>
<!-- Favicon / app icon: the Spielboard mark (white-ink) on a dark rounded
     square so it reads on light AND dark browser tabs / bookmarks. The mark
     itself stays transparent in logo.svg; this baked-bg variant is favicon-only. -->
<svg viewBox="0 0 356 356" xmlns="http://www.w3.org/2000/svg">
  <rect x="2.5" y="2.5" width="351" height="351" rx="78" fill="#0b0b0e" stroke="#2a2a32" stroke-width="3"/>
  <g transform="translate(178 178) scale(0.78) translate(-178 -178)">
    <path fill="#ffffff" d="m 244.83064,219.29343 c -1.45,14.04 -4.46,28.43 -9.47,41.31 -2.66,6.85 -9.58,17.47 -18.69,16.04 -5.42,-0.85 -8.2,-4.2 -11.39,-6.82 a 5.1,5.13 73.8 0 0 -1.83,-1 l -62.36,-19.05 a 0.42,0.42 0 0 0 -0.54,0.37 q -0.4,4.66 -0.93,8.95 c -1.03,8.46 -7.2,14.18 -15.82,13.45 q -1.16,-0.1 -7.49,-2.11 -13.14,-4.17 -43.6,-13.07 -8.57,-2.5 -10.62,-10.76 -0.76,-3.09 0.05,-10.05 0.49,-4.22 0.85,-10.08 a 0.8,0.8 0 0 0 -0.55,-0.81 l -27.1,-8.32 a 0.52,0.51 19 0 0 -0.64,0.31 q -3.63,9.73 -12.09,11.99 c -9.26,2.47 -17.9,-1.94 -21.48,-10.69 q -1.24,-3.03 -1.08,-10.38 0.09,-4.18 -0.05,-25.5 -0.08,-11.77 9.84,-17.18999 c 8.07,-4.42 18.11,-1.12 22.84,6.76999 a 0.58,0.58 0 0 0 0.74,0.23 l 172.34,-80.219994 a 1.49,1.55 12.9 0 0 0.35,-0.23 q 3.03,-2.78 4,-3.53 c 10.81,-8.29 20.88,3.08 24.57,12.110004 q 7.01,17.15 9.36,36.58 a 0.6,0.61 70.7 0 0 0.92,0.44 l 51.7,-31.89 a 0.75,0.77 63 0 0 0.31,-0.93 c -6.73,-16.500004 4.6,-33.760004 21.8,-35.840004 12.99,-1.57 26.17,8.24 28.32,21.64 2.34,14.660004 -7.66,29.020004 -22.95,30.580004 q -13.74,1.4 -23.41,-9.4 a 0.88,0.87 53.3 0 0 -1.11,-0.17 l -54.06,33.36 a 0.85,0.86 70.7 0 0 -0.41,0.84 q 1.79,15.31 1.95,28.46999 a 0.43,0.43 0 0 0 0.43,0.42 h 55.44 a 0.49,0.49 0 0 0 0.48,-0.41 c 2.29,-14.86999 15.32,-24.79999 30.13,-22.62999 14.05,2.05 24.17,15.77 21.95,30.21999 -2.84,18.59 -23.7,28.18 -39.6,18.41 q -10.05,-6.18 -12.41,-18.57 a 0.66,0.67 84.9 0 0 -0.66,-0.54 h -55.1 a 0.65,0.64 0 0 0 -0.65,0.64 q 0.02,14.54 -1.44,28.54 a 0.83,0.82 18.7 0 0 0.39,0.78 l 53.44,32.65 a 0.82,0.83 40 0 0 0.98,-0.09 c 1.95,-1.73 4.25,-4.17 6.79,-5.77 9.12,-5.76 20.25,-5.44 28.99,0.73 12.52,8.85 15.08,27.08 4.5,39 -7.89,8.88 -20.42,11.18 -31.04,5.96 -12.08,-5.93 -17.81,-20.56 -12.7,-33.3 a 0.47,0.47 0 0 0 -0.19,-0.58 l -51.18,-31.26 a 0.54,0.54 0 0 0 -0.82,0.4 z m 96.09,-123.679994 a 19.64,19.64 0 0 0 -19.64,-19.64 19.64,19.64 0 0 0 -19.64,19.64 19.64,19.64 0 0 0 19.64,19.640004 19.64,19.64 0 0 0 19.64,-19.640004 z m -143.14,85.929994 q -0.02,24.83 3.6,47.83 c 1.11,7.1 7.3,38.8 16.62,38.8 9.31,0.01 15.55,-31.68 16.68,-38.78 q 3.65,-22.99 3.67,-47.82 0.02,-24.82999 -3.6,-47.82999 c -1.12,-7.1 -7.31,-38.800004 -16.62,-38.800004 -9.31,-0.01 -15.55,31.680004 -16.68,38.780004 q -3.65,22.99 -3.67,47.81999 z m 2.21,76.81 q -2.3,-5.41 -3.79,-11.22 -4.86,-19.05 -6.21,-39.33 -2.06,-30.97 0.93,-61.55999 2.13,-21.8 8.37,-40.68 a 0.25,0.25 0 0 0 -0.34,-0.31 l -163.49,76.09999 a 0.66,0.68 77.6 0 0 -0.4,0.61 v 25.71 a 0.78,0.77 8.7 0 0 0.55,0.74 l 163.98,50.38 a 0.33,0.33 0 0 0 0.4,-0.44 z m 149.29,-80.18 a 19.71,19.71 0 0 0 -19.71,-19.70999 19.71,19.71 0 0 0 -19.71,19.70999 19.71,19.71 0 0 0 19.71,19.71 19.71,19.71 0 0 0 19.71,-19.71 z m -322.8222,3.2454 a 8.5,8.5 0 0 0 -8.4852,-8.5148 l -0.64,-0.001 a 8.5,8.5 0 0 0 -8.5148,8.4851 l -0.0556,31.86 a 8.5,8.5 0 0 0 8.4852,8.5148 l 0.64,10e-4 a 8.5,8.5 0 0 0 8.5148,-8.4851 z m 105.8122,66.3646 a 0.88,0.88 0 0 0 -0.62,-0.94 l -59.49,-18.28 a 0.52,0.52 0 0 0 -0.67,0.44 q -0.35,3.3 -1.21,11.66 c -0.46,4.42 1.03,7.34 5.14,8.57 q 41.3,12.32 46.82,14.07 c 5.44,1.73 8.16,-0.29 8.89,-6.19 q 1.06,-8.56 1.14,-9.33 z m 208.64,12.74 a 19.6,19.6 0 0 0 -19.6,-19.6 19.6,19.6 0 0 0 -19.6,19.6 19.6,19.6 0 0 0 19.6,19.6 19.6,19.6 0 0 0 19.6,-19.6 z"/>
    <circle fill="#9442ff" cx="321.41064" cy="95.583427" r="12.15"/>
    <circle fill="#ffb742" cx="329.54065" cy="178.21342" r="12.09"/>
    <circle fill="#5cc6ff" cx="321.40063" cy="260.54346" r="12.09"/>
  </g>
</svg>
