<?xml version="1.0" encoding="UTF-8" standalone="no"?>
<!DOCTYPE svg PUBLIC "-//W3C//DTD SVG 1.1//EN" "http://www.w3.org/Graphics/SVG/1.1/DTD/svg11.dtd">
<svg xmlns="http://www.w3.org/2000/svg" version="1.1" viewBox="138 261 1098 229">
<path fill="#ffffff" d="
  M 395.04 416.73
  C 393.59 430.77 390.58 445.16 385.57 458.04
  C 382.91 464.89 375.99 475.51 366.88 474.08
  C 361.46 473.23 358.68 469.88 355.49 467.26
  A 5.13 5.10 -16.2 0 0 353.66 466.26
  L 291.30 447.21
  A 0.42 0.42 0.0 0 0 290.76 447.58
  Q 290.36 452.24 289.83 456.53
  C 288.80 464.99 282.63 470.71 274.01 469.98
  Q 272.85 469.88 266.52 467.87
  Q 253.38 463.70 222.92 454.80
  Q 214.35 452.30 212.30 444.04
  Q 211.54 440.95 212.35 433.99
  Q 212.84 429.77 213.20 423.91
  A 0.80 0.80 0.0 0 0 212.65 423.10
  L 185.55 414.78
  A 0.52 0.51 19.0 0 0 184.91 415.09
  Q 181.28 424.82 172.82 427.08
  C 163.56 429.55 154.92 425.14 151.34 416.39
  Q 150.10 413.36 150.26 406.01
  Q 150.35 401.83 150.21 380.51
  Q 150.13 368.74 160.05 363.32
  C 168.12 358.90 178.16 362.20 182.89 370.09
  A 0.58 0.58 0.0 0 0 183.63 370.32
  L 355.97 290.10
  A 1.55 1.49 -77.1 0 0 356.32 289.87
  Q 359.35 287.09 360.32 286.34
  C 371.13 278.05 381.20 289.42 384.89 298.45
  Q 391.90 315.60 394.25 335.03
  A 0.61 0.60 -19.3 0 0 395.17 335.47
  L 446.87 303.58
  A 0.77 0.75 -27.0 0 0 447.18 302.65
  C 440.45 286.15 451.78 268.89 468.98 266.81
  C 481.97 265.24 495.15 275.05 497.30 288.45
  C 499.64 303.11 489.64 317.47 474.35 319.03
  Q 460.61 320.43 450.94 309.63
  A 0.88 0.87 53.3 0 0 449.83 309.46
  L 395.77 342.82
  A 0.86 0.85 -19.3 0 0 395.36 343.66
  Q 397.15 358.97 397.31 372.13
  A 0.43 0.43 0.0 0 0 397.74 372.55
  L 453.18 372.55
  A 0.49 0.49 0.0 0 0 453.66 372.14
  C 455.95 357.27 468.98 347.34 483.79 349.51
  C 497.84 351.56 507.96 365.28 505.74 379.73
  C 502.90 398.32 482.04 407.91 466.14 398.14
  Q 456.09 391.96 453.73 379.57
  A 0.67 0.66 -5.1 0 0 453.07 379.03
  L 397.97 379.03
  A 0.65 0.64 0.0 0 0 397.32 379.67
  Q 397.34 394.21 395.88 408.21
  A 0.83 0.82 18.7 0 0 396.27 408.99
  L 449.71 441.64
  A 0.83 0.82 -50.0 0 0 450.69 441.55
  C 452.64 439.82 454.94 437.38 457.48 435.78
  C 466.60 430.02 477.73 430.34 486.47 436.51
  C 498.99 445.36 501.55 463.59 490.97 475.51
  C 483.08 484.39 470.55 486.69 459.93 481.47
  C 447.85 475.54 442.12 460.91 447.23 448.17
  A 0.47 0.47 0.0 0 0 447.04 447.59
  L 395.86 416.33
  A 0.54 0.54 0.0 0 0 395.04 416.73
  Z
  M 491.13 293.05
  A 19.64 19.64 0.0 0 0 471.49 273.41
  A 19.64 19.64 0.0 0 0 451.85 293.05
  A 19.64 19.64 0.0 0 0 471.49 312.69
  A 19.64 19.64 0.0 0 0 491.13 293.05
  Z
  M 347.99 378.98
  Q 347.97 403.81 351.59 426.81
  C 352.70 433.91 358.89 465.61 368.21 465.61
  C 377.52 465.62 383.76 433.93 384.89 426.83
  Q 388.54 403.84 388.56 379.01
  Q 388.58 354.18 384.96 331.18
  C 383.84 324.08 377.65 292.38 368.34 292.38
  C 359.03 292.37 352.79 324.06 351.66 331.16
  Q 348.01 354.15 347.99 378.98
  Z
  M 350.20 455.79
  Q 347.90 450.38 346.41 444.57
  Q 341.55 425.52 340.20 405.24
  Q 338.14 374.27 341.13 343.68
  Q 343.26 321.88 349.50 303.00
  A 0.25 0.25 0.0 0 0 349.16 302.69
  L 185.67 378.79
  A 0.68 0.66 -12.4 0 0 185.27 379.40
  L 185.27 405.11
  A 0.78 0.77 8.7 0 0 185.82 405.85
  L 349.80 456.23
  A 0.33 0.33 0.0 0 0 350.20 455.79
  Z
  M 499.49 375.61
  A 19.71 19.71 0.0 0 0 479.78 355.90
  A 19.71 19.71 0.0 0 0 460.07 375.61
  A 19.71 19.71 0.0 0 0 479.78 395.32
  A 19.71 19.71 0.0 0 0 499.49 375.61
  Z
  M 176.6678 378.8554
  A 8.50 8.50 0.0 0 0 168.1826 370.3406
  L 167.5426 370.3395
  A 8.50 8.50 0.0 0 0 159.0278 378.8246
  L 158.9722 410.6846
  A 8.50 8.50 0.0 0 0 167.4574 419.1994
  L 168.0974 419.2005
  A 8.50 8.50 0.0 0 0 176.6122 410.7154
  L 176.6678 378.8554
  Z
  M 282.48 445.22
  A 0.88 0.88 0.0 0 0 281.86 444.28
  L 222.37 426.00
  A 0.52 0.52 0.0 0 0 221.70 426.44
  Q 221.35 429.74 220.49 438.10
  C 220.03 442.52 221.52 445.44 225.63 446.67
  Q 266.93 458.99 272.45 460.74
  C 277.89 462.47 280.61 460.45 281.34 454.55
  Q 282.40 445.99 282.48 445.22
  Z
  M 491.12 457.96
  A 19.60 19.60 0.0 0 0 471.52 438.36
  A 19.60 19.60 0.0 0 0 451.92 457.96
  A 19.60 19.60 0.0 0 0 471.52 477.56
  A 19.60 19.60 0.0 0 0 491.12 457.96
  Z"
/>
<circle fill="#9442ff" cx="471.62" cy="293.02" r="12.15"/>
<path fill="#ffffff" d="
  M 970.00 331.09
  C 989.13 331.09 998.60 344.05 998.50 362.01
  Q 998.50 362.46 998.49 384.14
  Q 998.49 405.82 998.49 406.26
  C 998.58 424.23 989.10 437.18 969.97 437.17
  C 950.84 437.17 941.37 424.21 941.47 406.25
  Q 941.47 405.80 941.48 384.12
  Q 941.48 362.44 941.48 362.00
  C 941.39 344.03 950.87 331.08 970.00 331.09
  Z
  M 957.76 384.07
  Q 957.78 402.06 957.82 406.25
  C 957.90 414.26 960.22 422.00 969.95 421.99
  C 979.68 421.98 981.98 414.24 982.04 406.22
  Q 982.07 402.03 982.05 384.04
  Q 982.03 366.05 981.99 361.86
  C 981.91 353.85 979.60 346.11 969.87 346.12
  C 960.13 346.13 957.83 353.88 957.77 361.89
  Q 957.74 366.08 957.76 384.07
  Z"
/>
<path fill="#ffffff" d="
  M 611.93 357.31
  L 597.68 361.12
  A 0.59 0.59 0.0 0 1 596.95 360.67
  C 595.87 355.54 593.02 348.91 587.90 346.88
  C 581.86 344.48 574.71 347.53 573.38 354.08
  C 571.70 362.33 577.31 367.64 583.21 372.11
  C 590.26 377.44 599.51 383.14 606.65 391.05
  Q 612.56 397.60 613.30 407.46
  C 614.83 427.67 599.91 439.00 580.62 437.06
  C 564.45 435.43 555.39 422.76 553.57 407.44
  A 0.82 0.82 0.0 0 1 554.22 406.54
  L 568.89 403.50
  A 0.49 0.49 0.0 0 1 569.47 403.92
  C 570.79 414.19 576.07 423.91 588.28 421.52
  Q 594.43 420.32 596.06 413.86
  C 598.09 405.84 593.87 399.64 587.72 395.03
  Q 570.66 382.24 569.06 380.96
  C 560.83 374.36 556.14 366.12 556.60 355.30
  C 557.20 340.96 568.37 331.88 582.58 331.21
  Q 600.98 330.34 609.23 346.79
  Q 611.53 351.40 612.45 356.50
  A 0.72 0.71 -12.4 0 1 611.93 357.31
  Z"
/>
<path fill="#ffffff" d="
  M 630.25 332.64
  C 636.75 332.55 647.34 332.78 658.48 332.65
  Q 666.32 332.56 672.18 335.07
  C 686.09 341.01 688.14 359.28 685.68 372.74
  C 682.85 388.23 673.03 393.60 658.25 393.58
  Q 651.18 393.57 646.42 393.59
  A 0.43 0.43 0.0 0 0 646.00 394.02
  L 646.00 435.40
  A 0.40 0.39 0.0 0 1 645.60 435.79
  L 630.05 435.79
  A 0.51 0.50 0.0 0 1 629.54 435.29
  L 629.54 333.36
  A 0.72 0.72 0.0 0 1 630.25 332.64
  Z
  M 645.98 347.83
  L 645.92 378.43
  A 0.58 0.58 0.0 0 0 646.50 379.01
  L 657.85 379.03
  A 12.22 12.03 -89.9 0 0 669.90 366.83
  L 669.92 359.51
  A 12.22 12.03 -89.9 0 0 657.91 347.27
  L 646.56 347.25
  A 0.58 0.58 0.0 0 0 645.98 347.83
  Z"
/>
<rect fill="#ffffff" x="702.60" y="332.61" width="16.50" height="103.18" rx="0.48"/>
<path fill="#ffffff" d="
  M 787.69 333.09
  L 787.69 346.78
  A 0.47 0.47 0.0 0 1 787.22 347.25
  L 755.82 347.25
  A 0.47 0.47 0.0 0 0 755.35 347.72
  L 755.35 373.65
  A 0.47 0.47 0.0 0 0 755.82 374.12
  L 778.37 374.12
  A 0.47 0.47 0.0 0 1 778.84 374.59
  L 778.84 388.48
  A 0.47 0.47 0.0 0 1 778.37 388.95
  L 755.82 388.95
  A 0.47 0.47 0.0 0 0 755.35 389.42
  L 755.35 420.30
  A 0.47 0.47 0.0 0 0 755.82 420.77
  L 787.27 420.77
  A 0.47 0.47 0.0 0 1 787.74 421.24
  L 787.74 435.32
  A 0.47 0.47 0.0 0 1 787.27 435.79
  L 739.24 435.79
  A 0.47 0.47 0.0 0 1 738.77 435.32
  L 738.77 333.09
  A 0.47 0.47 0.0 0 1 739.24 332.62
  L 787.22 332.62
  A 0.47 0.47 0.0 0 1 787.69 333.09
  Z"
/>
<path fill="#ffffff" d="
  M 820.30 420.76
  L 851.59 420.76
  A 0.54 0.54 0.0 0 1 852.13 421.30
  L 852.13 435.25
  A 0.54 0.54 0.0 0 1 851.59 435.79
  L 803.81 435.79
  A 0.54 0.54 0.0 0 1 803.27 435.25
  L 803.27 333.16
  A 0.54 0.54 0.0 0 1 803.81 332.62
  L 819.22 332.62
  A 0.54 0.54 0.0 0 1 819.76 333.16
  L 819.76 420.22
  A 0.54 0.54 0.0 0 0 820.30 420.76
  Z"
/>
<path fill="#ffffff" d="
  M 909.37 380.90
  A 0.21 0.21 0.0 0 0 909.37 381.28
  Q 922.38 386.94 924.32 401.21
  C 926.94 420.44 917.70 435.70 896.99 435.77
  Q 875.62 435.84 867.83 435.83
  A 0.52 0.52 0.0 0 1 867.31 435.31
  L 867.31 332.98
  A 0.36 0.36 0.0 0 1 867.67 332.62
  Q 876.52 332.66 887.53 332.61
  Q 898.22 332.57 900.93 333.01
  C 910.96 334.62 918.53 340.22 921.16 350.32
  C 924.29 362.38 922.12 375.57 909.37 380.90
  Z
  M 883.76 347.62
  L 883.76 373.54
  A 0.48 0.48 0.0 0 0 884.24 374.02
  L 893.80 374.02
  A 12.44 12.41 0.0 0 0 906.24 361.61
  L 906.24 359.55
  A 12.44 12.41 -0.0 0 0 893.80 347.14
  L 884.24 347.14
  A 0.48 0.48 0.0 0 0 883.76 347.62
  Z
  M 883.89 389.43
  L 883.67 420.64
  A 0.26 0.26 0.0 0 0 883.93 420.91
  L 893.88 420.98
  A 14.19 14.17 -89.6 0 0 908.15 406.89
  L 908.17 403.53
  A 14.19 14.17 -89.6 0 0 894.10 389.24
  L 884.15 389.17
  A 0.26 0.26 0.0 0 0 883.89 389.43
  Z"
/>
<path fill="#ffffff" d="
  M 1043.81 332.60
  Q 1049.81 332.58 1054.47 332.63
  A 0.77 0.76 -5.1 0 1 1055.21 333.24
  L 1076.28 435.16
  A 0.50 0.50 0.0 0 1 1075.79 435.76
  L 1060.25 435.76
  A 0.55 0.55 0.0 0 1 1059.71 435.32
  L 1055.21 413.55
  A 0.53 0.53 0.0 0 0 1054.72 413.13
  Q 1053.54 413.08 1043.95 413.10
  Q 1034.37 413.11 1033.19 413.17
  A 0.53 0.53 0.0 0 0 1032.70 413.59
  L 1028.28 435.38
  A 0.55 0.55 0.0 0 1 1027.74 435.82
  L 1012.20 435.87
  A 0.50 0.50 0.0 0 1 1011.71 435.28
  L 1032.41 333.28
  A 0.77 0.76 4.9 0 1 1033.15 332.67
  Q 1037.81 332.61 1043.81 332.60
  Z
  M 1035.36 397.54
  A 0.31 0.31 0.0 0 0 1035.67 397.91
  L 1051.82 397.85
  A 0.31 0.31 0.0 0 0 1052.12 397.48
  L 1043.89 353.98
  A 0.31 0.31 0.0 0 0 1043.28 353.98
  L 1035.36 397.54
  Z"
/>
<path fill="#ffffff" d="
  M 1149.36 435.45
  A 0.27 0.27 0.0 0 1 1149.10 435.80
  L 1132.83 435.80
  A 0.74 0.73 80.5 0 1 1132.14 435.30
  L 1118.68 393.99
  A 1.08 1.08 0.0 0 0 1117.65 393.24
  L 1108.87 393.24
  A 0.32 0.31 -90.0 0 0 1108.56 393.56
  L 1108.56 435.31
  A 0.48 0.48 0.0 0 1 1108.08 435.79
  L 1092.71 435.79
  A 0.64 0.64 0.0 0 1 1092.07 435.15
  L 1092.07 333.26
  A 0.65 0.65 0.0 0 1 1092.71 332.61
  Q 1101.60 332.56 1117.27 332.65
  Q 1124.48 332.69 1127.76 333.45
  C 1138.73 336.02 1145.08 343.46 1147.08 354.57
  C 1149.31 366.90 1146.85 382.35 1135.04 389.20
  A 0.92 0.92 0.0 0 0 1134.63 390.27
  L 1149.36 435.45
  Z
  M 1108.50 347.69
  L 1108.56 377.93
  A 0.55 0.55 0.0 0 0 1109.11 378.48
  L 1118.90 378.46
  A 13.08 12.26 89.9 0 0 1131.13 365.36
  L 1131.13 360.18
  A 13.08 12.26 89.9 0 0 1118.84 347.12
  L 1109.05 347.14
  A 0.55 0.55 0.0 0 0 1108.50 347.69
  Z"
/>
<path fill="#ffffff" d="
  M 1166.08 333.20
  A 0.64 0.64 0.0 0 1 1166.72 332.56
  L 1195.67 332.56
  A 27.36 26.55 -90.0 0 1 1222.22 359.92
  L 1222.22 408.44
  A 27.36 26.55 -90.0 0 1 1195.67 435.80
  L 1166.72 435.80
  A 0.64 0.64 0.0 0 1 1166.08 435.16
  L 1166.08 333.20
  Z
  M 1182.45 347.91
  L 1182.45 420.23
  A 0.54 0.54 0.0 0 0 1182.99 420.77
  L 1192.60 420.77
  A 13.85 13.13 -90.0 0 0 1205.73 406.92
  L 1205.73 361.22
  A 13.85 13.13 90.0 0 0 1192.60 347.37
  L 1182.99 347.37
  A 0.54 0.54 0.0 0 0 1182.45 347.91
  Z"
/>
<circle fill="#ffb742" cx="479.75" cy="375.65" r="12.09"/>
<circle fill="#5cc6ff" cx="471.61" cy="457.98" r="12.09"/>
</svg>
